<svg xmlns="http://www.w3.org/2000/svg">
  <symbol id="wifi-icon" viewBox="0 1.5254883 6.3024577 4.8245117">
    <path fill="currentColor" d="M 3.1512288,1.5254883 A 4.456547,4.8245768 0 0 0 0,2.938322 L 3.1512288,6.35 6.3024577,2.938322 A 4.456547,4.8245768 0 0 0 3.1512288,1.5254883 Z" />
  </symbol>
  <symbol id="battery-icon" viewBox="15.577000 0.000259 3.472998 6.349741">
    <path fill="currentColor" d="M 16.594049,2.5936217e-4 A 0.32946623,0.26460996 0 0 0 16.263329,0.26380916 v 0.1545125 h -0.685891 a 0.32946623,0.26460996 0 0 0 -0.328146,0.2656169 V 6.0861928 a 0.32946623,0.26460996 0 0 0 0.328146,0.2635498 h 3.144413 A 0.32946623,0.26460996 0 0 0 19.049998,6.0861928 V 0.68393856 a 0.32946623,0.26460996 0 0 0 -0.328147,-0.2656169 h -0.68589 V 0.26380916 A 0.32946623,0.26460996 0 0 0 17.705242,2.5936217e-4 Z M 15.908158,0.94748836 h 2.482973 V 5.8205759 h -2.482973 z m 0.209113,0.20877284 v 4.4565755 h 2.065391 V 1.1562612 Z" />
  </symbol>
  <symbol id="data-icon" viewBox="7.6008738 0 6.35 6.35">
    <path fill="currentColor" d="M 12.730276,9.9999999e-8 V 6.35 h 1.220598 V 9.9999999e-8 Z M 11.020303,1.2190471 V 6.35 h 1.220598 V 1.2190471 Z M 9.3108469,2.6453166 V 6.35 H 10.531444 V 2.6453166 Z M 7.6008738,4.1175782 V 6.35 H 8.8214711 V 4.1175782 Z" />
  </symbol>
  <symbol id="fullscreen-exit-icon" viewBox="-0.0237711 6.35 6.35 6.35">
    <path fill="currentColor" d="M 1.2908773,6.35 V 7.6646484 H -0.0237711 V 8.4573649 H 1.6872356 A 0.39691468,0.39691468 0 0 0 2.0835938,8.0610067 V 6.35 Z m 2.9274699,0 V 8.0610067 A 0.39691468,0.39691468 0 0 0 4.6147054,8.4573649 H 6.3262288 V 7.6646484 H 5.0110637 V 6.35 Z m -4.2421183,4.242119 v 0.792716 H 1.2908773 V 12.7 H 2.0835938 V 10.988477 A 0.39691468,0.39691468 0 0 0 1.6872356,10.592119 Z m 4.6384765,0 A 0.39691468,0.39691468 0 0 0 4.2183472,10.988477 V 12.7 h 0.7927165 v -1.315165 h 1.3151651 v -0.792716 z" />
  </symbol>
  <symbol id="fullscreen-icon" viewBox="6.3502582 6.35 5.9531248 6.35">
    <path fill="currentColor" d="M 6.7466164,6.35 A 0.39691468,0.39691468 0 0 0 6.3502582,6.7463582 V 8.4578817 H 7.1429747 V 7.1427165 H 8.4581399 V 6.35 Z m 3.8457606,0 v 0.7927165 h 1.314648 v 1.3151652 h 0.792717 V 6.7463582 A 0.39691468,0.39691468 0 0 0 12.303383,6.35 Z m -4.2421188,4.242118 v 1.711007 a 0.39691468,0.39691468 0 0 0 0.3963582,0.396358 H 8.4581399 V 11.906767 H 7.1429747 v -1.314649 z m 5.5567668,0 v 1.314649 h -1.314648 v 0.792716 h 1.711006 a 0.39691468,0.39691468 0 0 0 0.396359,-0.396358 v -1.711007 z" />
  </symbol>
</svg>